<svg xmlns="http://www.w3.org/2000/svg" width="150" height="40" fill="none"><path fill="#fff" d="M118.939 30.71c-1.848 0-3.346-.07-4.494-.21-1.148-.113-2.03-.35-2.646-.715a2.954 2.954 0 0 1-1.26-1.596c-.224-.672-.336-1.526-.336-2.562 0-1.428.154-2.52.462-3.276.308-.756.826-1.26 1.554-1.512.756-.28 1.764-.42 3.024-.42.7 0 1.484.014 2.352.042.896 0 1.764.014 2.604.042.84.028 1.568.084 2.184.168.644.056 1.078.112 1.302.168 0-1.008-.084-1.806-.252-2.394-.168-.588-.448-1.036-.84-1.344-.392-.308-.896-.504-1.512-.588a15.442 15.442 0 0 0-2.142-.126c-.952 0-1.918.028-2.898.084-.952.028-1.862.098-2.73.21-.84.084-1.582.21-2.226.378v-.966c0-.7.168-1.204.504-1.512.336-.336.77-.56 1.302-.672.616-.14 1.512-.238 2.688-.294a82.287 82.287 0 0 1 3.822-.084c1.736 0 3.192.084 4.368.252 1.176.168 2.114.504 2.814 1.008.728.504 1.246 1.246 1.554 2.226.308.952.462 2.24.462 3.864v8.484c-.336.476-1.316.826-2.94 1.05-1.596.196-3.836.294-6.72.294Zm-.042-2.185c.952 0 1.736-.014 2.352-.042.644-.056 1.162-.14 1.554-.252.392-.112.686-.252.882-.42v-5.208c-.28-.084-.728-.154-1.344-.21-.588-.084-1.19-.14-1.806-.168a17.657 17.657 0 0 0-1.554-.084c-.84 0-1.526.07-2.058.21-.532.112-.924.392-1.176.84-.224.448-.336 1.148-.336 2.1 0 .756.084 1.386.252 1.89.168.476.504.826 1.008 1.05.504.196 1.246.294 2.226.294ZM88.836 22.1c0-2.297.322-4.06.966-5.293.644-1.232 1.568-2.072 2.772-2.52 1.232-.476 2.688-.714 4.368-.714.504 0 1.078.028 1.722.084.672.056 1.316.14 1.932.252a11.21 11.21 0 0 1 1.638.336c.476.112.826.238 1.05.378l-1.26.546V9.29h5.04l-.042 12.768c0 1.904-.154 3.43-.462 4.578-.308 1.12-.826 1.974-1.554 2.562-.7.56-1.666.938-2.898 1.134-1.204.168-2.716.252-4.536.252-1.652 0-3.052-.112-4.2-.336-1.12-.224-2.016-.63-2.688-1.218-.644-.588-1.12-1.442-1.428-2.562-.28-1.12-.42-2.576-.42-4.368Zm8.862 5.795c.924 0 1.666-.07 2.226-.21.588-.168 1.022-.434 1.302-.798.308-.364.518-.882.63-1.554.112-.7.168-1.582.168-2.646l-.042-6.006a7.872 7.872 0 0 0-.924-.042l-1.218-.084c-.42-.028-.812-.042-1.176-.042-1.176 0-2.114.154-2.814.462-.672.28-1.162.826-1.47 1.638-.28.812-.42 2.002-.42 3.57 0 1.624.112 2.842.336 3.654.252.812.658 1.358 1.218 1.638.56.28 1.288.42 2.184.42ZM69.355 30.5c-.924 0-1.386-.477-1.386-1.429V14.833c.84-.336 2.03-.616 3.57-.84 1.568-.252 3.304-.378 5.208-.378 1.988 0 3.556.112 4.704.336 1.176.224 2.044.602 2.604 1.134.588.532.966 1.232 1.134 2.1.196.868.294 1.946.294 3.234v8.106c0 .504-.042.91-.126 1.218-.056.28-.238.49-.546.63-.28.112-.728.168-1.344.168l-3.024-.042V19.243c0-.98-.308-1.694-.924-2.142-.616-.448-1.526-.672-2.73-.672-.42 0-.868.042-1.344.126a6.725 6.725 0 0 0-1.344.294c-.42.112-.77.266-1.05.462V30.5h-3.696Zm-14.845.21c-1.849 0-3.347-.07-4.495-.21-1.148-.113-2.03-.35-2.646-.715a2.954 2.954 0 0 1-1.26-1.596c-.224-.672-.336-1.526-.336-2.562 0-1.428.154-2.52.462-3.276.308-.756.826-1.26 1.554-1.512.756-.28 1.764-.42 3.024-.42.7 0 1.484.014 2.352.042.896 0 1.764.014 2.604.042.84.028 1.568.084 2.184.168.644.056 1.078.112 1.302.168 0-1.008-.084-1.806-.252-2.394-.168-.588-.448-1.036-.84-1.344-.392-.308-.896-.504-1.512-.588a15.442 15.442 0 0 0-2.142-.126c-.952 0-1.918.028-2.898.084-.952.028-1.862.098-2.73.21-.84.084-1.582.21-2.226.378v-.966c0-.7.168-1.204.504-1.512.336-.336.77-.56 1.302-.672.616-.14 1.512-.238 2.688-.294a82.287 82.287 0 0 1 3.822-.084c1.736 0 3.192.084 4.368.252 1.176.168 2.114.504 2.814 1.008.728.504 1.246 1.246 1.554 2.226.308.952.462 2.24.462 3.864v8.484c-.336.476-1.316.826-2.94 1.05-1.596.196-3.836.294-6.72.294Zm-.043-2.185c.952 0 1.736-.014 2.352-.042.644-.056 1.162-.14 1.554-.252.392-.112.686-.252.882-.42v-5.208c-.28-.084-.728-.154-1.344-.21-.588-.084-1.19-.14-1.806-.168a17.657 17.657 0 0 0-1.554-.084c-.84 0-1.526.07-2.058.21-.532.112-.924.392-1.176.84-.224.448-.336 1.148-.336 2.1 0 .756.084 1.386.252 1.89.168.476.504.826 1.008 1.05.504.196 1.246.294 2.226.294ZM21.39 30.5V13.992c0-1.036.169-1.764.505-2.184.364-.42 1.064-.63 2.1-.63h4.158a115.77 115.77 0 0 1 4.41 0h4.158c1.232.056 2.31.28 3.234.672a4.404 4.404 0 0 1 2.142 1.89c.532.84.798 1.974.798 3.402 0 1.596-.266 2.884-.798 3.864-.504.98-1.232 1.694-2.184 2.142-.924.42-2.03.63-3.318.63a273.112 273.112 0 0 0-4.872-.042h-4.914V21.89c.028-.42.098-.7.21-.84.112-.14.336-.21.672-.21h6.594c.56 0 1.064-.112 1.512-.336.448-.224.798-.602 1.05-1.134.252-.532.378-1.246.378-2.142 0-.952-.182-1.68-.546-2.184-.364-.504-.966-.784-1.806-.84a34.207 34.207 0 0 0-2.436-.084c-.84 0-1.652.014-2.436.042h-2.1c-.168 0-.364.07-.588.21-.224.14-.336.35-.336.63V30.5H21.39Z"></path></svg>