<svg xmlns="http://www.w3.org/2000/svg" width="150" height="40" fill="none"><path fill="#fff" d="M42.91 14.08a14.61 14.61 0 0 0-2.205-3.55A14.917 14.917 0 1 0 20.11 31.832a14.43 14.43 0 0 0 3.528 2.017 14.764 14.764 0 0 0 5.59 1.103 14.95 14.95 0 0 0 14.917-14.94 14.764 14.764 0 0 0-1.235-5.932ZM29.217 8.093c1.721 0 3.422.376 4.983 1.103-.38.164-.78.28-1.19.342a6.317 6.317 0 0 0-5.348 5.347 3.308 3.308 0 0 1-2.988 2.922 6.317 6.317 0 0 0-5.347 5.348 3.208 3.208 0 0 1-.871 1.918A11.907 11.907 0 0 1 29.228 8.07l-.012.022ZM20.099 27.73c.132-.121.264-.231.396-.364a6.042 6.042 0 0 0 1.787-3.561 3.22 3.22 0 0 1 .959-2.007 3.12 3.12 0 0 1 1.995-.948 6.318 6.318 0 0 0 5.348-5.347 3.22 3.22 0 0 1 .959-2.106 3.164 3.164 0 0 1 2.017-.915 6.042 6.042 0 0 0 3.308-1.577c1.04.862 1.92 1.9 2.602 3.065a.949.949 0 0 1-.143.154 3.163 3.163 0 0 1-1.996.97 6.296 6.296 0 0 0-5.347 5.348 3.308 3.308 0 0 1-2.966 2.955 6.351 6.351 0 0 0-5.38 5.348 3.463 3.463 0 0 1-.54 1.51 12.01 12.01 0 0 1-3-2.525Zm9.117 4.256a11.952 11.952 0 0 1-3.307-.463 6.373 6.373 0 0 0 .706-2.205 3.308 3.308 0 0 1 2.954-2.955 6.317 6.317 0 0 0 5.359-5.348 3.308 3.308 0 0 1 2.954-2.954 6.294 6.294 0 0 0 2.823-1.103 11.931 11.931 0 0 1-11.488 14.973v.055ZM126.939 11.4v17.22h-3.556V11.4h3.556Zm7.435 10.388h-7.435v-3.556l7.435-.021v3.578Zm1.401-6.832h-8.836V11.4h8.836v3.556Zm0 13.665h-8.836v-3.557l8.836-.021v3.578Zm-20.051-17.242V28.62h-3.556V11.379h3.556Zm5.496 3.556h-14.548V11.4l14.548-.021v3.556Zm-22.024-3.556L91.782 28.62h-4.009l7.414-17.242h4.01Zm.022 0 7.457 17.242h-4.009l-7.457-17.242h4.009Zm3.017 14.052H91.998v-3.664l10.237-.021v3.685ZM69.86 11.379h7.284c2.4 0 4.411.388 6.035 1.164 1.623.776 2.435 2.291 2.435 4.547 0 1.337-.431 2.393-1.293 3.168-.848.762-1.904 1.294-3.168 1.595-1.25.288-2.587.431-4.009.431h-3.642v6.337h-3.643V11.379Zm8.06 9.698h4.073l3.255 7.544h-4.074l-3.254-7.544Zm-.776-2.263c1.135 0 2.004-.057 2.608-.172.618-.13 1.049-.33 1.293-.604.244-.273.366-.639.366-1.099 0-.46-.122-.826-.366-1.099s-.675-.474-1.293-.603c-.604-.13-1.473-.194-2.608-.194h-3.642v3.771h3.642Zm-9.448-7.435L56.123 26.293l-.173-4.957 7.414-9.957h4.332Zm-10.991 0V28.62h-3.557V11.379h3.556Zm1.077 9.785 2.242-2.479 7.672 9.936h-4.332l-5.582-7.457Z"></path></svg>