<svg xmlns="http://www.w3.org/2000/svg" width="150" height="40" fill="none"><g fill="#fff" clip-path="url(#a)"><path d="M117.153 31.363c-1.725 0-3.133-.364-4.227-1.093-1.068-.753-1.87-1.7-2.404-2.842a9.537 9.537 0 0 1-.802-3.68c-.024-1.506.255-2.842.838-4.008.607-1.19 1.458-2.113 2.551-2.769 1.117-.68 2.429-1.02 3.935-1.02 1.336 0 2.526.292 3.57.875a6.578 6.578 0 0 1 2.551 2.477c.631 1.045.959 2.284.983 3.717v.947h-10.894c0 1.384.34 2.453 1.021 3.206.68.729 1.615 1.093 2.805 1.093.923 0 1.688-.23 2.295-.692.632-.462 1.009-1.069 1.13-1.822h3.607c-.17 1.579-.85 2.915-2.04 4.008-1.191 1.069-2.83 1.603-4.919 1.603Zm-3.789-9.072h7.068a7.714 7.714 0 0 0-.182-.802 3.411 3.411 0 0 0-.474-1.13c-.218-.388-.558-.716-1.02-.983-.461-.267-1.057-.4-1.785-.4-.972 0-1.713.206-2.223.619-.486.388-.838.85-1.056 1.384-.195.51-.304.948-.328 1.312Zm-12.406 9.072c-1.725 0-3.134-.364-4.227-1.093-1.069-.753-1.87-1.7-2.404-2.842a9.54 9.54 0 0 1-.802-3.68c-.024-1.506.255-2.842.838-4.008.607-1.19 1.457-2.113 2.55-2.769 1.118-.68 2.43-1.02 3.935-1.02 1.336 0 2.526.292 3.571.875a6.569 6.569 0 0 1 2.55 2.477c.632 1.045.96 2.284.984 3.717v.947H97.059c0 1.384.34 2.453 1.02 3.206.68.729 1.616 1.093 2.806 1.093.923 0 1.688-.23 2.295-.692.632-.462 1.008-1.069 1.13-1.822h3.607c-.17 1.579-.85 2.915-2.041 4.008-1.19 1.069-2.829 1.603-4.918 1.603Zm-3.79-9.072h7.069a7.714 7.714 0 0 0-.182-.802 3.411 3.411 0 0 0-.474-1.13c-.219-.388-.559-.716-1.02-.983-.462-.267-1.057-.4-1.786-.4-.971 0-1.712.206-2.222.619-.486.388-.838.85-1.057 1.384-.194.51-.303.948-.328 1.312ZM82.578 31V16.025h3.462l.254 4.154c.146-.632.426-1.263.838-1.895.438-.655 1.033-1.19 1.786-1.603.777-.437 1.773-.656 2.987-.656h.547v4.154h-.546c-2.09 0-3.547.34-4.373 1.02-.826.656-1.239 1.773-1.239 3.352v6.45h-3.716Zm-5.725 0c-1.19 0-2.089-.292-2.696-.875-.583-.583-.875-1.53-.875-2.842v-8.635h-2.259v-2.623c.705 0 1.251-.073 1.64-.219.389-.145.668-.486.838-1.02.17-.534.255-1.397.255-2.587h2.988v3.826h3.425v2.623h-3.425v9.437h3.498V31h-3.389ZM65.82 31V10.485h3.644V31H65.82Zm-6.515 0V10.485h3.643V31h-3.643Zm-9.882.364c-1.7 0-3.11-.327-4.227-.983a6.26 6.26 0 0 1-2.514-2.696c-.558-1.166-.838-2.49-.838-3.972-.024-2.235.596-4.068 1.859-5.502 1.287-1.457 3.194-2.186 5.72-2.186 2.453 0 4.311.705 5.575 2.114 1.287 1.408 1.93 3.267 1.93 5.574 0 1.433-.267 2.733-.801 3.899a6.21 6.21 0 0 1-2.478 2.769c-1.117.656-2.526.983-4.226.983Zm0-3.133c1.069 0 1.882-.23 2.441-.692a3.301 3.301 0 0 0 1.166-1.749 8.454 8.454 0 0 0 0-4.409 3.303 3.303 0 0 0-1.166-1.785c-.559-.462-1.372-.692-2.441-.692-1.093 0-1.931.243-2.514.729a3.598 3.598 0 0 0-1.166 1.785 8.183 8.183 0 0 0-.291 2.186c0 .729.097 1.457.291 2.186a3.604 3.604 0 0 0 1.166 1.749c.583.461 1.42.692 2.514.692ZM29.294 31h-3.716V10.485h8.234c2.284 0 4.057.571 5.32 1.713 1.263 1.141 1.895 2.866 1.895 5.173 0 2.017-.656 3.596-1.968 4.737-1.287 1.142-3.036 1.712-5.247 1.712h-4.517V31Zm4.008-17.49h-4.008v7.579h4.008c1.312 0 2.369-.316 3.17-.947.802-.632 1.203-1.58 1.203-2.842 0-1.288-.401-2.235-1.203-2.842-.777-.632-1.834-.948-3.17-.948Z"></path></g><defs><clipPath id="a"><path fill="#fff" d="M23.5 0h103v40h-103z"></path></clipPath></defs></svg>