<svg xmlns="http://www.w3.org/2000/svg" width="151" height="40" fill="none"><g fill="#fff" clip-path="url(#a)"><path d="M112.943 18.941c.543-1.002 1.045-1.88 1.504-2.548.376-.543.71-.626 1.003-.25.626.752.96 2.548-.042 4.636-.919 1.88-3.008 5.013-4.01 7.226-1.044 2.34-1.086 4.136.334 4.052 1.713-.084 4.01-2.924 5.472-5.806.209-.376.501-.418.668-.042.167.376.167 1.42-.376 2.59-1.086 2.297-3.717 4.595-6.014 4.47-2.256-.126-3.426-1.463-3.426-3.426-1.336 1.713-3.216 3.258-5.221 3.258-3.884 0-4.678-5.304-1.211-10.359 3.383-4.928 6.683-6.808 8.772-6.808 1.796 0 2.631 1.378 2.547 3.007Zm-3.633 6.475c2.631-4.595 3.007-7.185 1.796-7.31-1.337-.125-4.386 2.59-6.684 6.307-2.213 3.592-2.756 7.268-1.127 7.31 1.712.042 3.884-2.632 6.015-6.307Zm-21.008 3.717c-1.462 1.963-3.676 4.094-6.015 3.926-2.966-.209-3.05-3.3-2.13-6.056.919-2.757 3.049-6.85 5.764-10.651.334-.46.752-.418 1.086-.042.919 1.378.71 3.258-.794 5.639-1.545 2.464-2.38 4.135-3.258 6.14-.877 2.047-.752 3.55.209 3.634 1.629.125 3.926-2.799 6.182-6.433 2.631-4.26 3.843-7.142 5.18-8.938.417-.585.71-.669 1.044-.251.626.752.96 2.59-.042 4.678-.92 1.88-3.008 5.012-3.968 7.143-1.086 2.38-.92 4.135.584 4.051 1.755-.083 3.885-2.84 5.514-5.764.209-.376.585-.418.752-.042.167.334.209 1.462-.376 2.632-1.211 2.339-3.801 4.47-6.266 4.47-2.715 0-3.8-1.713-3.466-4.136Zm-19.82-8.896c1.88-2.005 4.72-4.303 6.099-4.094 1.378.21 2.673 2.256 1.629 4.428-.878 1.838-2.924 4.929-3.885 7.1-1.086 2.423-.835 4.386.668 4.303 1.713-.084 3.76-2.84 5.347-5.764.209-.376.501-.376.71-.042.292.46.209 1.42-.376 2.631-1.128 2.34-3.76 4.47-6.182 4.47-3.55 0-4.386-2.59-3.175-6.224 1.379-4.093 5.055-8.52 4.303-8.855-.418-.167-2.84 1.002-5.514 3.926-2.464 2.674-4.302 6.683-6.098 10.61-.167.376-.418.543-.794.167-.835-.836-1.086-2.214-.417-4.302.835-2.632 4.051-8.438 6.683-12.322.292-.46.626-.418.877 0 .626 1.044.585 2.464.125 3.968Zm-7.808-6.894c.543 1.086.25 2.214-.293 2.799-.543.585-1.712.46-2.339-.627-.668-1.127-.46-2.38.21-3.09.667-.71 1.879-.21 2.422.918Zm-6.809 19.8c-3.174 0-3.968-2.674-2.798-6.1 1.044-3.048 3.8-7.977 5.346-10.15.376-.5.669-.626 1.003-.25.626.668.96 2.465-.042 4.553-.877 1.838-2.632 4.678-3.509 6.767-1.002 2.422-.919 4.051.418 3.968 1.88-.084 4.177-2.84 5.43-5.723.209-.375.501-.334.668 0 .334.669.21 1.546-.292 2.59-1.253 2.59-3.885 4.344-6.224 4.344ZM38.01 23.744c-1.462 2.8-2.924 5.932-4.303 9.148-.167.376-.417.46-.668.125-.626-.877-.96-2.088-.209-4.594 1.044-3.55 8.229-17.71 10.777-21.261.376-.501.668-.46 1.002.084.543.96.752 2.965-.96 6.098-1.086 1.963-2.465 4.428-3.968 7.226C45.151 16.477 51 11.255 54.968 6.953c.293-.334.627-.292.794.084.25.919.209 2.339-1.295 4.385-1.88 2.548-7.56 7.644-13.2 11.612 1.337 2.13 2.465 4.052 2.966 5.222 1.003 2.38.627 3.843 0 4.636-.25.292-.543.292-.752-.084-1.587-3.09-3.425-6.098-5.471-9.064Z"></path></g><defs><clipPath id="a"><path fill="#fff" d="M29.398 0h91.574v40H29.398z"></path></clipPath></defs></svg>