<svg xmlns="http://www.w3.org/2000/svg" width="150" height="40" fill="none"><path fill="#fff" d="M126.433 31.809c-4.237 0-6.355-1.466-6.355-4.4 0-.406.041-.844.122-1.313l.642-3.788c.346-1.955 1.242-3.452 2.688-4.49 1.467-1.06 3.402-1.59 5.805-1.59 4.093 0 6.14 1.548 6.14 4.644 0 .448-.04.937-.122 1.466l-.366 2.17h-9.318l-.122.702a4.091 4.091 0 0 0-.062.672c0 1.12.662 1.68 1.986 1.68.489 0 .907-.152 1.253-.458.346-.305.55-.662.611-1.069l5.071.061c-.672 3.809-3.33 5.713-7.973 5.713Zm3.666-9.165a4.19 4.19 0 0 0 .122-.947c0-.305-.133-.611-.397-.916-.265-.306-.693-.459-1.284-.459-.57 0-1.099.194-1.588.58-.469.388-.794.968-.978 1.742h4.125Zm-11.334-2.78c0 .672-.203 1.293-.611 1.863h-5.01c.163-.122.244-.325.244-.61 0-.286-.163-.51-.488-.673-.326-.183-.744-.274-1.253-.274-1.527 0-2.291.468-2.291 1.405 0 .366.285.631.855.794.57.163 1.263.295 2.078.397.814.102 1.629.255 2.444.459.814.183 1.507.56 2.077 1.13.57.57.855 1.334.855 2.291 0 1.69-.682 2.974-2.046 3.85-1.345.875-3.31 1.313-5.897 1.313-2.586 0-4.399-.418-5.437-1.253-.815-.651-1.223-1.547-1.223-2.688 0-.326.031-.662.092-1.008l5.102-.061c-.041.285.122.54.489.764.387.203.947.305 1.68.305s1.263-.071 1.589-.214c.326-.163.488-.458.488-.886 0-.285-.285-.478-.855-.58a19.175 19.175 0 0 0-2.108-.306 21.515 21.515 0 0 1-2.474-.397 4.064 4.064 0 0 1-2.078-1.16c-.57-.591-.855-1.365-.855-2.322 0-1.854.713-3.28 2.138-4.277 1.446-.998 3.524-1.497 6.232-1.497 4.176 0 6.263 1.211 6.263 3.635ZM99.44 26.676c0 .53.266.794.795.794.55 0 1.008-.101 1.375-.305l-.153 3.452c-.977.794-2.077 1.191-3.3 1.191-2.24 0-3.482-.814-3.726-2.444-1.019 1.63-2.516 2.444-4.491 2.444-3.34 0-5.01-1.435-5.01-4.307 0-.489.05-1.029.152-1.62l.642-3.574c.326-1.833 1.07-3.289 2.23-4.368 1.181-1.1 2.709-1.65 4.583-1.65 1.894 0 3.177.438 3.849 1.314l.153-.917h4.643l-1.71 9.623c-.02.123-.031.245-.031.367Zm-9.042-1.466c-.04.183-.061.438-.061.763 0 .326.153.652.458.978.306.305.815.458 1.528.458.733 0 1.364-.285 1.894-.855l.916-5.132c-.224-.51-.753-.764-1.588-.764-1.568 0-2.485.753-2.75 2.26l-.397 2.292ZM78.17 16.259c2.017 0 3.432.56 4.247 1.68.61.794.916 1.762.916 2.902 0 .468-.05.957-.152 1.466l-.611 3.422c-.347 1.955-1.253 3.462-2.72 4.521-1.445 1.04-3.278 1.558-5.498 1.558-2.2 0-3.89-.437-5.072-1.313-.937-.693-1.405-1.66-1.405-2.902 0-.326.03-.662.092-1.009l3.238-18.39h5.193l-1.558 8.89c.856-.55 1.966-.825 3.33-.825Zm-.275 6.507a5.79 5.79 0 0 0 .031-.672c0-.306-.132-.622-.397-.947-.245-.347-.794-.52-1.65-.52-.835 0-1.436.255-1.802.764l-.886 5.102c.244.61.753.916 1.527.916 1.568 0 2.495-.784 2.78-2.352l.397-2.291Zm-14.277 3.91c0 .53.265.794.795.794.55 0 1.008-.101 1.374-.305l-.152 3.452c-.978.794-2.078 1.191-3.3 1.191-1.853 0-3.055-.427-3.605-1.283a3.318 3.318 0 0 1-.52-1.802c0-.652.042-1.222.123-1.71l3.33-18.82h5.194L63.649 26.31c-.02.122-.03.244-.03.366Zm-9.758 0c0 .53.265.794.795.794.55 0 1.008-.101 1.374-.305l-.152 3.452c-.978.794-2.078 1.191-3.3 1.191-1.853 0-3.055-.427-3.605-1.283a3.317 3.317 0 0 1-.519-1.802c0-.652.04-1.222.122-1.71l3.33-18.82H57.1L53.89 26.31c-.02.122-.03.244-.03.366ZM40.069 16.258c2.2 0 3.859.478 4.98 1.436.875.753 1.313 1.802 1.313 3.146 0 .448-.051.937-.153 1.467l-.642 3.574c-.386 2.159-1.293 3.686-2.718 4.583-1.406.896-3.29 1.344-5.652 1.344-2.363 0-4.094-.448-5.194-1.344-.814-.672-1.222-1.68-1.222-3.025 0-.468.051-.988.153-1.558l.642-3.574c.712-4.033 3.543-6.05 8.492-6.05Zm.824 6.66a3.99 3.99 0 0 0 .061-.764c0-.326-.132-.682-.397-1.07-.265-.386-.733-.58-1.405-.58-.652 0-1.202.224-1.65.672-.448.428-.733 1.009-.855 1.742l-.397 2.291a4.166 4.166 0 0 0-.061.794c0 .306.132.642.397 1.008.264.367.723.55 1.375.55.672 0 1.232-.224 1.68-.672a3.242 3.242 0 0 0 .855-1.68l.397-2.291Zm-5.779-8.768H27.6l-3.025 17.23h-5.53l3.025-17.23h-7.546l.856-4.765h20.59l-.855 4.766Z"></path></svg>